<?xml version="1.0" encoding="utf-8"?>
<!-- Generator: Adobe Illustrator 25.4.1, SVG Export Plug-In . SVG Version: 6.00 Build 0)  -->
<svg version="1.1" id="Layer_1" xmlns="http://www.w3.org/2000/svg" xmlns:xlink="http://www.w3.org/1999/xlink" x="0px" y="0px"
	 viewBox="0 0 190 198" style="enable-background:new 0 0 190 198;" xml:space="preserve">
<style type="text/css">
	.st0{fill:#DD1100;}
	.st1{fill:#FFFFFF;}
</style>
<path class="st0" d="M189,130l-27-31l27-31l-40-8l4-41l-37,16L95,0L74,35L37,19l4,41L1,68l27,31L1,130l40,8l-4,41l37-16l21,35l21-35
	l37,16l-4-41"/>
<path class="st1" d="M118,68c0,0-9,6-23,6s-22-6-22-6s2,10-1,23c-3,8-7,14-13,19c0,0,12,2,21,8c9,7,15,19,15,19s5-12,14-18
	c9-7,22-8,22-8s-9-11-13-20C114,81,118,68,118,68z M105,112c-6,4-10,11-10,11l-10-11l-13-5c0,0,5-7,7-14c2-4,2-9,2-14c0,0,7,3,14,3
	c6,0,14-3,14-3s-2,8,1,15c2,6,8,13,8,13L105,112z M133,85c-2-7,5-45,5-45s-26,18-44,18S52,40,52,40s8,27,3,45c-4,17-29,37-29,37
	s32,1,44,10c13,8,25,40,25,40s16-35,23-40s46-11,46-11S136,93,133,85z M114,126c-13,8-19,28-19,28s-10-22-20-29s-32-9-32-9
	s17-14,21-28c4-13-1-33-1-33s18,11,31,11c14,0,33-11,33-11s-6,21-1,33c4,13,21,28,21,28S127,117,114,126"/>
</svg>
